<mxfile host="app.diagrams.net" modified="2023-07-09T19:02:54.922Z" agent="Mozilla/5.0 (Windows NT 10.0; Win64; x64) AppleWebKit/537.36 (KHTML, like Gecko) Chrome/114.0.0.0 Safari/537.36" etag="a-48XkZxWvq_DF1jEady" version="21.6.1" type="device">
  <diagram name="Страница 1" id="qI_-Tf4TFIsoeTkCNO6_">
    <mxGraphModel dx="1642" dy="1114" grid="1" gridSize="10" guides="1" tooltips="1" connect="1" arrows="1" fold="1" page="1" pageScale="1" pageWidth="850" pageHeight="1100" math="0" shadow="0">
      <root>
        <mxCell id="0" />
        <mxCell id="1" parent="0" />
        <mxCell id="V4_dzBrhe_Ft4x6RbR1c-1" value="Class &#xa;Animal" style="swimlane;fontStyle=0;childLayout=stackLayout;horizontal=1;startSize=40;fillColor=none;horizontalStack=0;resizeParent=1;resizeParentMax=0;resizeLast=0;collapsible=1;marginBottom=0;movable=0;resizable=0;rotatable=0;deletable=0;editable=0;locked=1;connectable=0;" vertex="1" parent="1">
          <mxGeometry x="310" y="50" width="140" height="62" as="geometry" />
        </mxCell>
        <mxCell id="V4_dzBrhe_Ft4x6RbR1c-2" value="Class &#xa;homeAnimals&#xa;" style="swimlane;fontStyle=0;childLayout=stackLayout;horizontal=1;startSize=50;fillColor=none;horizontalStack=0;resizeParent=1;resizeParentMax=0;resizeLast=0;collapsible=1;marginBottom=0;movable=0;resizable=0;rotatable=0;deletable=0;editable=0;locked=1;connectable=0;" vertex="1" parent="1">
          <mxGeometry x="90" y="190" width="140" height="72" as="geometry" />
        </mxCell>
        <mxCell id="V4_dzBrhe_Ft4x6RbR1c-3" value="Class&#xa;AnimalPack" style="swimlane;fontStyle=0;childLayout=stackLayout;horizontal=1;startSize=50;fillColor=none;horizontalStack=0;resizeParent=1;resizeParentMax=0;resizeLast=0;collapsible=1;marginBottom=0;movable=0;resizable=0;rotatable=0;deletable=0;editable=0;locked=1;connectable=0;" vertex="1" parent="1">
          <mxGeometry x="510" y="190" width="140" height="72" as="geometry" />
        </mxCell>
        <mxCell id="V4_dzBrhe_Ft4x6RbR1c-4" value="" style="endArrow=block;endSize=16;endFill=0;html=1;rounded=0;exitX=0.5;exitY=0;exitDx=0;exitDy=0;" edge="1" parent="1" source="V4_dzBrhe_Ft4x6RbR1c-2">
          <mxGeometry width="160" relative="1" as="geometry">
            <mxPoint x="220" y="188.9760000000001" as="sourcePoint" />
            <mxPoint x="341" y="112" as="targetPoint" />
            <Array as="points">
              <mxPoint x="160" y="150" />
              <mxPoint x="340" y="150" />
            </Array>
          </mxGeometry>
        </mxCell>
        <mxCell id="V4_dzBrhe_Ft4x6RbR1c-5" value="" style="endArrow=block;endSize=16;endFill=0;html=1;rounded=0;exitX=0.5;exitY=0;exitDx=0;exitDy=0;" edge="1" parent="1" source="V4_dzBrhe_Ft4x6RbR1c-3">
          <mxGeometry x="-0.1054" y="3" width="160" relative="1" as="geometry">
            <mxPoint x="587.98" y="188.4000000000001" as="sourcePoint" />
            <mxPoint x="414" y="112" as="targetPoint" />
            <Array as="points">
              <mxPoint x="580" y="150" />
              <mxPoint x="414" y="150" />
            </Array>
            <mxPoint as="offset" />
          </mxGeometry>
        </mxCell>
        <mxCell id="V4_dzBrhe_Ft4x6RbR1c-6" value="Class&#xa; Dog" style="swimlane;fontStyle=0;childLayout=stackLayout;horizontal=1;startSize=28;fillColor=none;horizontalStack=0;resizeParent=1;resizeParentMax=0;resizeLast=0;collapsible=1;marginBottom=0;movable=0;resizable=0;rotatable=0;deletable=0;editable=0;locked=1;connectable=0;" vertex="1" parent="1">
          <mxGeometry x="-10" y="330" width="80" height="64" as="geometry">
            <mxRectangle x="30" y="330" width="70" height="40" as="alternateBounds" />
          </mxGeometry>
        </mxCell>
        <mxCell id="V4_dzBrhe_Ft4x6RbR1c-7" value="Class&#xa; Cat" style="swimlane;fontStyle=0;childLayout=stackLayout;horizontal=1;startSize=26;fillColor=none;horizontalStack=0;resizeParent=1;resizeParentMax=0;resizeLast=0;collapsible=1;marginBottom=0;movable=0;resizable=0;rotatable=0;deletable=0;editable=0;locked=1;connectable=0;" vertex="1" parent="1">
          <mxGeometry x="120" y="330" width="80" height="64" as="geometry">
            <mxRectangle x="120" y="330" width="70" height="40" as="alternateBounds" />
          </mxGeometry>
        </mxCell>
        <mxCell id="V4_dzBrhe_Ft4x6RbR1c-8" value="Class&#xa; Hamster" style="swimlane;fontStyle=0;childLayout=stackLayout;horizontal=1;startSize=26;fillColor=none;horizontalStack=0;resizeParent=1;resizeParentMax=0;resizeLast=0;collapsible=1;marginBottom=0;movable=0;resizable=0;rotatable=0;deletable=0;editable=0;locked=1;connectable=0;" vertex="1" parent="1">
          <mxGeometry x="250" y="329" width="80" height="64" as="geometry">
            <mxRectangle x="220" y="330" width="90" height="40" as="alternateBounds" />
          </mxGeometry>
        </mxCell>
        <mxCell id="V4_dzBrhe_Ft4x6RbR1c-9" value="" style="endArrow=block;endSize=16;endFill=0;html=1;rounded=0;movable=1;resizable=1;rotatable=1;deletable=1;editable=1;locked=0;connectable=1;entryX=0.75;entryY=1;entryDx=0;entryDy=0;" edge="1" parent="V4_dzBrhe_Ft4x6RbR1c-8" target="V4_dzBrhe_Ft4x6RbR1c-2">
          <mxGeometry width="160" relative="1" as="geometry">
            <mxPoint x="40" as="sourcePoint" />
            <mxPoint x="-30" y="-29" as="targetPoint" />
          </mxGeometry>
        </mxCell>
        <mxCell id="V4_dzBrhe_Ft4x6RbR1c-10" value="Class&#xa; Camel" style="swimlane;fontStyle=0;childLayout=stackLayout;horizontal=1;startSize=26;fillColor=none;horizontalStack=0;resizeParent=1;resizeParentMax=0;resizeLast=0;collapsible=1;marginBottom=0;movable=0;resizable=0;rotatable=0;deletable=0;editable=0;locked=1;connectable=0;" vertex="1" parent="1">
          <mxGeometry x="540" y="330" width="80" height="62" as="geometry">
            <mxRectangle x="540" y="330" width="80" height="40" as="alternateBounds" />
          </mxGeometry>
        </mxCell>
        <mxCell id="V4_dzBrhe_Ft4x6RbR1c-11" value="Class&#xa; Donkey" style="swimlane;fontStyle=0;childLayout=stackLayout;horizontal=1;startSize=26;fillColor=none;horizontalStack=0;resizeParent=1;resizeParentMax=0;resizeLast=0;collapsible=1;marginBottom=0;movable=0;resizable=0;rotatable=0;deletable=0;editable=0;locked=1;connectable=0;" vertex="1" parent="1">
          <mxGeometry x="670" y="330" width="80" height="62" as="geometry" />
        </mxCell>
        <mxCell id="V4_dzBrhe_Ft4x6RbR1c-12" value="Class&#xa; Horse" style="swimlane;fontStyle=0;childLayout=stackLayout;horizontal=1;startSize=30;fillColor=none;horizontalStack=0;resizeParent=1;resizeParentMax=0;resizeLast=0;collapsible=1;marginBottom=0;movable=0;resizable=0;rotatable=0;deletable=0;editable=0;locked=1;connectable=0;" vertex="1" parent="1">
          <mxGeometry x="414" y="330" width="80" height="62" as="geometry">
            <mxRectangle x="414" y="330" width="70" height="40" as="alternateBounds" />
          </mxGeometry>
        </mxCell>
        <mxCell id="V4_dzBrhe_Ft4x6RbR1c-13" value="" style="endArrow=block;endSize=16;endFill=0;html=1;rounded=0;exitX=0.5;exitY=0;exitDx=0;exitDy=0;entryX=0.25;entryY=1;entryDx=0;entryDy=0;" edge="1" parent="1" source="V4_dzBrhe_Ft4x6RbR1c-6" target="V4_dzBrhe_Ft4x6RbR1c-2">
          <mxGeometry width="160" relative="1" as="geometry">
            <mxPoint x="330" y="360" as="sourcePoint" />
            <mxPoint x="490" y="360" as="targetPoint" />
          </mxGeometry>
        </mxCell>
        <mxCell id="V4_dzBrhe_Ft4x6RbR1c-14" value="" style="endArrow=block;endSize=16;endFill=0;html=1;rounded=0;entryX=0.25;entryY=1;entryDx=0;entryDy=0;" edge="1" parent="1" target="V4_dzBrhe_Ft4x6RbR1c-3">
          <mxGeometry width="160" relative="1" as="geometry">
            <mxPoint x="460" y="330" as="sourcePoint" />
            <mxPoint x="530" y="290" as="targetPoint" />
          </mxGeometry>
        </mxCell>
        <mxCell id="V4_dzBrhe_Ft4x6RbR1c-15" value="" style="endArrow=block;endSize=16;endFill=0;html=1;rounded=0;exitX=0.5;exitY=0;exitDx=0;exitDy=0;entryX=0.5;entryY=1;entryDx=0;entryDy=0;" edge="1" parent="1" source="V4_dzBrhe_Ft4x6RbR1c-7" target="V4_dzBrhe_Ft4x6RbR1c-2">
          <mxGeometry width="160" relative="1" as="geometry">
            <mxPoint x="330" y="360" as="sourcePoint" />
            <mxPoint x="490" y="360" as="targetPoint" />
          </mxGeometry>
        </mxCell>
        <mxCell id="V4_dzBrhe_Ft4x6RbR1c-17" value="" style="endArrow=block;endSize=16;endFill=0;html=1;rounded=0;exitX=0.5;exitY=0;exitDx=0;exitDy=0;entryX=0.5;entryY=1;entryDx=0;entryDy=0;" edge="1" parent="1" source="V4_dzBrhe_Ft4x6RbR1c-10" target="V4_dzBrhe_Ft4x6RbR1c-3">
          <mxGeometry width="160" relative="1" as="geometry">
            <mxPoint x="330" y="360" as="sourcePoint" />
            <mxPoint x="490" y="360" as="targetPoint" />
          </mxGeometry>
        </mxCell>
        <mxCell id="V4_dzBrhe_Ft4x6RbR1c-19" value="" style="endArrow=block;endSize=16;endFill=0;html=1;rounded=0;entryX=0.75;entryY=1;entryDx=0;entryDy=0;" edge="1" parent="1" target="V4_dzBrhe_Ft4x6RbR1c-3">
          <mxGeometry width="160" relative="1" as="geometry">
            <mxPoint x="710" y="330" as="sourcePoint" />
            <mxPoint x="555" y="272" as="targetPoint" />
          </mxGeometry>
        </mxCell>
      </root>
    </mxGraphModel>
  </diagram>
</mxfile>
